<svg xmlns="http://www.w3.org/2000/svg" viewBox="0 0 32 32"><g fill="none" fill-rule="evenodd"><path d="M23.6 21.6a1.2 1.2 0 0 1 0 1.7l-3.6 3.6a8.4 8.4 0 0 1-11.9-11.9l3.6-3.6a1.2 1.2 0 1 1 1.7 1.7l-3.6 3.6a6 6 0 0 0 8.5 8.5l3.6-3.6a1.2 1.2 0 0 1 1.7 0z" fill="#FFA116"/><path d="M25.3 10.3a1.2 1.2 0 0 1 0 1.7l-10.2 10.2a1.2 1.2 0 1 1-1.7-1.7l10.2-10.2a1.2 1.2 0 0 1 1.7 0z" fill="#292D3D"/><path d="M23.6 10.3a1.2 1.2 0 0 1 0-1.7l3.6-3.6a8.4 8.4 0 0 1 0 11.9l-3.6 3.6a1.2 1.2 0 1 1-1.7-1.7l3.6-3.6a6 6 0 0 0 0-8.5l-3.6 3.6a1.2 1.2 0 0 1-1.7-1.7l3.6-3.6a8.4 8.4 0 0 1 11.9 11.9l-3.6 3.6a1.2 1.2 0 1 1-1.7-1.7l3.6-3.6a6 6 0 0 0-8.5-8.5l-3.6 3.6a1.2 1.2 0 1 1-1.7-1.7l3.6-3.6a8.4 8.4 0 0 1 11.9 11.9l-3.6 3.6a1.2 1.2 0 1 1-1.7-1.7l3.6-3.6a6 6 0 0 0-8.5-8.5l-3.6 3.6a1.2 1.2 0 1 1-1.7-1.7l3.6-3.6a8.4 8.4 0 0 1 11.9 11.9l-3.6 3.6a1.2 1.2 0 1 1-1.7-1.7l3.6-3.6a6 6 0 0 0-8.5-8.5l-3.6 3.6a1.2 1.2 0 1 1-1.7-1.7l3.6-3.6a8.4 8.4 0 0 1 11.9 11.9z" fill="#292D3D"/></g></svg>