<svg xmlns="http://www.w3.org/2000/svg" viewBox="0 0 32 32" fill="none"><rect width="32" height="32" rx="6" fill="#1DA1F2"/><path d="M25.6 11.1c-.6.3-1.2.5-1.9.6.7-.4 1.2-1.1 1.5-1.8-.7.4-1.4.7-2.2.9-.7-.7-1.7-1.1-2.7-1.1-2.1 0-3.7 2-3.2 4-.3 0-.7-.1-1-.2-2.4-.5-4.5-1.7-5.9-3.5-.3.5-.5 1.1-.5 1.7 0 1.2.6 2.2 1.6 2.8-.6 0-1.1-.2-1.6-.4v.1c0 1.7 1.2 3.1 2.8 3.4-.3.1-.6.2-.9.2-.2 0-.4 0-.6-.1.4 1.3 1.7 2.3 3.2 2.3-1.2.9-2.7 1.4-4.2 1.4-.3 0-.6 0-.8-.1 1.5 1 3.3 1.6 5.2 1.6 6.2 0 9.6-5.1 9.6-9.6v-.4c.7-.5 1.2-1.1 1.6-1.8z" fill="#fff"/></svg>